  <svg
                    width='21'
                    height='34'
                    viewBox="0 0 21 34"
                    fill="none"
                    xmlns="http://www.w3.org/2000/svg"
                  >
                    <g clipPath="url(#clip0_40_1523)">
                      <path
                        d="M10.4986 1.78369L19.343 15.1769C16.9009 19.5009 15.8043 23.9736 15.8265 28.57H5.17059C4.8256 23.9737 3.70574 19.5009 1.65411 15.1769L10.4986 1.78369Z"
                        fill="#E9DECE"
                      />
                      <path
                        d="M12.6297 16.6307C12.6297 17.8088 11.6766 18.7619 10.4985 18.7619C9.32037 18.7619 8.36731 17.8088 8.36731 16.6307C8.36731 15.4526 9.32043 14.4995 10.4985 14.4995C11.6766 14.4995 12.6297 15.4526 12.6297 16.6307Z"
                        fill="white"
                      />
                      <path
                        d="M19.8141 26.4123V31.1205C19.8141 31.8441 19.2274 32.4308 18.5038 32.4308H2.49333C1.7697 32.4308 1.18304 31.8441 1.18304 31.1205V26.4123C1.18304 25.6887 1.7697 25.1021 2.49333 25.1021H18.5039C19.2275 25.1021 19.8141 25.6887 19.8141 26.4123Z"
                        fill="white"
                      />
                      <path
                        d="M18.5037 24.5936H16.6261C17.0955 21.4033 18.1453 18.3316 19.7856 15.4267C19.8795 15.2605 19.8725 15.0557 19.7673 14.8962L10.9229 1.50313C10.7185 1.19284 10.2697 1.20619 10.0741 1.50313L1.22977 14.8963C1.13166 15.0448 1.11851 15.2338 1.19475 15.3947C2.57736 18.309 3.55874 21.3914 4.14201 24.5937H2.49331C1.49052 24.5937 0.6745 25.4097 0.6745 26.4125V31.1205C0.6745 32.1238 1.49052 32.9398 2.49331 32.9398H18.5037C19.5067 32.9398 20.3227 32.1238 20.3227 31.1205V26.4125C20.3228 25.4097 19.5067 24.5936 18.5037 24.5936ZM10.2863 15.0298C10.3514 15.0599 10.4222 15.0793 10.4985 15.0793C10.5749 15.0793 10.6457 15.0599 10.7107 15.0298C11.5045 15.135 12.1212 15.8088 12.1212 16.6307C12.1212 17.5255 11.3933 18.2536 10.4985 18.2536C9.60373 18.2536 8.87587 17.5255 8.87587 16.6307C8.87587 15.8088 9.49253 15.135 10.2863 15.0298ZM2.23583 15.2186L9.98993 3.47676V14.0425C8.77717 14.2805 7.85868 15.3493 7.85868 16.6307C7.85868 18.0864 9.04299 19.2708 10.4985 19.2708C11.9541 19.2708 13.1384 18.0865 13.1384 16.6307C13.1384 15.3493 12.2199 14.2805 11.0071 14.0425V3.47676L18.7481 15.199C17.1067 18.1786 16.0668 21.3269 15.6056 24.5937H5.16981C4.59279 21.3339 3.61884 18.1919 2.23583 15.2186ZM19.3056 31.1205C19.3056 31.563 18.9457 31.9227 18.5037 31.9227H2.49331C2.05126 31.9227 1.69169 31.5631 1.69169 31.1205V26.4125C1.69169 25.9704 2.05126 25.6109 2.49331 25.6109H18.5037C18.9457 25.6109 19.3056 25.9704 19.3056 26.4125V31.1205Z"
                        fill="#585D69"
                      />
                    </g>
                    <defs>
                      <clipPath id="clip0_40_1523">
                        <rect
                          width='20'
                          height="32.6667"
                          fill="white"
                          transform="translate(0.5 0.666504)"
                        />
                      </clipPath>
                    </defs>
                  </svg>