    <svg
                  width='31'
                  height='30'
                  viewBox="0 0 31 30"
                  fill="none"
                  xmlns="http://www.w3.org/2000/svg"
                >
                  <g clipPath="url(#clip0_40_1572)">
                    <path
                      d="M29.3615 2.31852V21.9182C29.3615 22.819 28.6312 23.5492 27.7305 23.5492H3.04737C2.14655 23.5492 1.41636 22.8189 1.41636 21.9182V2.31852C1.41636 1.4177 2.14661 0.6875 3.04737 0.6875H27.7305C28.6313 0.6875 29.3615 1.4177 29.3615 2.31852Z"
                      fill="white"
                    />
                    <path
                      d="M29.3615 2.31852V6.74949H16.3902C16.1256 6.74949 15.883 6.60248 15.7605 6.36799L15.6713 6.19707C15.5724 5.93 15.3177 5.7527 15.0328 5.7527H9.68294C9.39812 5.7527 9.14341 5.93 9.0445 6.19707L8.95527 6.36799C8.8328 6.60248 8.59017 6.74949 8.32562 6.74949H1.41636V2.31852C1.41636 1.4177 2.14661 0.6875 3.04737 0.6875H27.7305C28.6312 0.6875 29.3615 1.41775 29.3615 2.31852Z"
                      fill="#E9DECE"
                    />
                    <path
                      d="M5.42148 3.44432C5.42148 3.95174 5.01144 4.36178 4.50402 4.36178C3.99659 4.36178 3.58656 3.95174 3.58656 3.44432C3.58656 2.93689 3.99659 2.52686 4.50402 2.52686C5.01144 2.52686 5.42148 2.93684 5.42148 3.44432Z"
                      fill="white"
                    />
                    <path
                      d="M8.72429 3.44432C8.72429 3.95174 8.31425 4.36178 7.80683 4.36178C7.29941 4.36178 6.88937 3.95174 6.88937 3.44432C6.88937 2.93689 7.29941 2.52686 7.80683 2.52686C8.31425 2.52686 8.72429 2.93684 8.72429 3.44432Z"
                      fill="white"
                    />
                    <path
                      d="M12.0272 3.44432C12.0272 3.95174 11.6171 4.36178 11.1097 4.36178C10.6023 4.36178 10.1922 3.95174 10.1922 3.44432C10.1922 2.93689 10.6023 2.52686 11.1097 2.52686C11.6171 2.52686 12.0272 2.93684 12.0272 3.44432Z"
                      fill="white"
                    />
                    <path
                      d="M28.1654 3.44451C28.1654 3.81107 27.8682 4.10826 27.5017 4.10826H18.6623C18.2958 4.10826 17.9986 3.81107 17.9986 3.44451C17.9986 3.07795 18.2958 2.78076 18.6623 2.78076H27.5017C27.8682 2.78076 28.1654 3.07795 28.1654 3.44451Z"
                      fill="white"
                    />
                    <path
                      d="M21.4631 26.7929C24.8199 23.4361 24.8199 17.9936 21.4631 14.6368C18.1063 11.28 12.6639 11.28 9.30707 14.6368C5.95027 17.9936 5.95027 23.4361 9.30707 26.7929C12.6639 30.1497 18.1063 30.1497 21.4631 26.7929Z"
                      fill="#E9DECE"
                    />
                    <path
                      d="M12.749 17.2025V24.228C12.749 24.8461 13.428 25.2236 13.953 24.8975L19.6085 21.3848C20.105 21.0764 20.105 20.354 19.6085 20.0457L13.953 16.533C13.428 16.2069 12.749 16.5845 12.749 17.2025Z"
                      fill="white"
                    />
                    <path
                      d="M29.697 2.3184C29.697 2.18275 29.6832 2.05039 29.6569 1.92242C29.4734 1.0274 28.6796 0.352051 27.7311 0.352051H27.7305H3.04737H3.04673C1.96251 0.352051 1.08091 1.23441 1.08091 2.31846C1.08097 5.81205 1.08109 20.5321 1.08114 21.9189C1.08114 23.0028 1.96286 23.8846 3.04673 23.8846H5.86234C6.04767 23.8846 6.19778 23.7344 6.19778 23.5491C6.19778 23.3639 6.04767 23.2137 5.86234 23.2137H3.04667C2.33277 23.2137 1.75193 22.6328 1.75193 21.9189V7.085H8.32556C8.71638 7.085 9.07169 6.8699 9.25275 6.52309L9.34198 6.35211C9.34843 6.33969 9.35423 6.3268 9.35915 6.31367C9.40907 6.17891 9.53921 6.08832 9.683 6.08832H15.0329C15.1767 6.08832 15.3069 6.17896 15.3567 6.31367C15.3617 6.3268 15.3675 6.33969 15.3739 6.35211L15.4632 6.52332C15.644 6.86967 15.9992 7.085 16.3902 7.085H29.026V21.9189C29.026 22.6328 28.4452 23.2137 27.7312 23.2137H24.9156C24.7302 23.2137 24.5801 23.3639 24.5801 23.5491C24.5801 23.7344 24.7302 23.8846 24.9156 23.8846H27.7312C28.815 23.8846 29.6969 23.0028 29.6969 21.9189C29.6969 20.0662 29.697 5.34465 29.697 2.3184ZM16.3902 6.4141C16.2501 6.4141 16.1227 6.33699 16.058 6.21295L15.9775 6.05879C15.8249 5.67418 15.4482 5.41736 15.0329 5.41736H9.683C9.26775 5.41736 8.89099 5.67418 8.73835 6.05879L8.65796 6.21277C8.5931 6.33705 8.46566 6.4141 8.32556 6.4141H1.75198V2.31775C1.75198 1.60531 2.33165 1.02295 3.04737 1.02295H27.7305C28.3555 1.02295 28.8786 1.46779 28.9997 2.05754C29.0169 2.14162 29.026 2.22869 29.026 2.31781V6.41416L16.3902 6.4141Z"
                      fill="#585D69"
                    />
                    <path
                      d="M4.50402 2.19141C3.81314 2.19141 3.25111 2.75355 3.25111 3.44432C3.25111 4.13508 3.81314 4.69717 4.50402 4.69717C5.1949 4.69717 5.75693 4.13502 5.75693 3.44426C5.75693 2.7535 5.1949 2.19141 4.50402 2.19141ZM3.922 3.44426C3.922 2.67416 5.08603 2.67451 5.08603 3.44426C5.08603 4.21436 3.922 4.214 3.922 3.44426Z"
                      fill="#585D69"
                    />
                    <path
                      d="M7.80683 2.19141C7.11595 2.19141 6.55392 2.75355 6.55392 3.44432C6.55392 4.13508 7.11595 4.69723 7.80683 4.69723C8.49771 4.69723 9.05974 4.13508 9.05974 3.44432C9.05974 2.75355 8.49771 2.19141 7.80683 2.19141ZM7.80683 4.02627C7.48591 4.02627 7.22482 3.76506 7.22482 3.44426C7.22482 3.12346 7.48591 2.86225 7.80683 2.86225C8.12774 2.86225 8.38884 3.12346 8.38884 3.44426C8.38884 3.76506 8.12774 4.02627 7.80683 4.02627Z"
                      fill="#585D69"
                    />
                    <path
                      d="M11.1098 2.19141C10.4189 2.19141 9.85685 2.75355 9.85685 3.44432C9.85685 4.13508 10.4189 4.69723 11.1098 4.69723C11.8006 4.69723 12.3627 4.13508 12.3627 3.44432C12.3627 2.75355 11.8006 2.19141 11.1098 2.19141ZM11.1098 4.02627C10.7888 4.02627 10.5277 3.76506 10.5277 3.44426C10.5277 3.12346 10.7888 2.86225 11.1098 2.86225C11.4307 2.86225 11.6918 3.12346 11.6918 3.44426C11.6918 3.76506 11.4307 4.02627 11.1098 4.02627Z"
                      fill="#585D69"
                    />
                    <path
                      d="M27.5016 2.44531H18.6623C18.1114 2.44531 17.6632 2.89367 17.6632 3.44469C17.6632 3.9957 18.1114 4.44383 18.6623 4.44383H27.5017C28.0527 4.44383 28.5009 3.9957 28.5009 3.44469C28.5009 2.89367 28.0526 2.44531 27.5016 2.44531ZM27.5016 3.77287H18.6623C18.4813 3.77287 18.3341 3.62568 18.3341 3.44463C18.3341 3.26357 18.4813 3.11615 18.6623 3.11615H27.5017C27.6827 3.11615 27.83 3.26357 27.83 3.44463C27.83 3.62568 27.6826 3.77287 27.5016 3.77287Z"
                      fill="#585D69"
                    />
                    <path
                      d="M15.389 11.7827C10.4636 11.7827 6.45654 15.7899 6.45654 20.7153C6.45654 25.6406 10.4636 29.6476 15.389 29.6476C20.3143 29.6476 24.3213 25.6406 24.3213 20.7153C24.3213 15.7899 20.3143 11.7827 15.389 11.7827ZM15.389 28.9768C10.8335 28.9768 7.12743 25.2707 7.12743 20.7153C7.12743 16.1597 10.8335 12.4537 15.389 12.4537C19.9443 12.4537 23.6504 16.1597 23.6504 20.7153C23.6504 25.2706 19.9443 28.9768 15.389 28.9768Z"
                      fill="#585D69"
                    />
                    <path
                      d="M19.7856 19.7606L14.1301 16.2478C13.7786 16.0297 13.353 16.0196 12.9912 16.2203C12.6296 16.4214 12.4136 16.7885 12.4136 17.2024V24.2277C12.4136 24.6416 12.6295 25.0087 12.9912 25.2098C13.3527 25.4105 13.7782 25.4007 14.1301 25.1823L19.7856 21.6695C20.1179 21.4629 20.3164 21.1063 20.3164 20.7149C20.3164 20.3238 20.1178 19.9672 19.7856 19.7606ZM19.4316 21.0995L13.7761 24.6124C13.6346 24.7006 13.463 24.7045 13.3172 24.6235C13.1716 24.5425 13.0845 24.3944 13.0845 24.2277V17.2024C13.0845 17.0357 13.1716 16.8877 13.3172 16.8066C13.4625 16.7259 13.6347 16.7296 13.7761 16.8177L19.4316 20.3306C19.5675 20.4149 19.6455 20.5551 19.6455 20.7149C19.6455 20.875 19.5675 21.0152 19.4316 21.0995Z"
                      fill="#585D69"
                    />
                  </g>
                  <defs>
                    <clipPath id="clip0_40_1572">
                      <rect
                        width='30'
                        height='30'
                        fill="white"
                        transform="translate(0.388916)"
                      />
                    </clipPath>
                  </defs>
                </svg>