<svg
                  width='31'
                  height='30'
                  viewBox="0 0 31 30"
                  fill="none"
                  xmlns="http://www.w3.org/2000/svg"
                >
                  <g clipPath="url(#clip0_40_1534)">
                    <path
                      d="M29.9908 4.13299V18.4995C29.9908 19.8806 28.8712 21.0002 27.4902 21.0002H3.95452C2.57347 21.0002 1.45386 19.8806 1.45386 18.4995V4.13299C1.45386 2.75193 2.57347 1.63232 3.95452 1.63232H27.4902C28.8712 1.63232 29.9908 2.75193 29.9908 4.13299Z"
                      fill="white"
                    />
                    <path
                      d="M18.115 7.27889L19.2591 13.8528C19.3804 14.55 18.8438 15.188 18.1361 15.188H9.79606C9.08837 15.188 8.55177 14.55 8.67306 13.8528L9.8171 7.27889C9.91208 6.73297 10.386 6.33447 10.9401 6.33447H16.992C17.5461 6.33447 18.02 6.73297 18.115 7.27889Z"
                      fill="#E9DECE"
                    />
                    <path
                      d="M1.45386 17.1265V18.4994C1.45386 19.8805 2.57341 21 3.95452 21H27.4902C28.8713 21 29.9908 19.8805 29.9908 18.4994V17.1265H1.45386Z"
                      fill="#E9DECE"
                    />
                    <path
                      d="M12.4739 21H18.9708V26.3773H12.4739V21Z"
                      fill="white"
                    />
                    <path
                      d="M21.925 27.3724C21.925 27.9219 21.4795 28.3673 20.93 28.3673H10.5147C9.9652 28.3673 9.51978 27.9219 9.51978 27.3724C9.51978 26.8229 9.9652 26.3774 10.5147 26.3774H20.93C21.4795 26.3774 21.925 26.8228 21.925 27.3724Z"
                      fill="#E9DECE"
                    />
                    <path
                      d="M17.0278 21V22.3055C17.0278 23.0265 16.4433 23.611 15.7223 23.611C15.0013 23.611 14.4169 23.0265 14.4169 22.3055V21H17.0278Z"
                      fill="#E9DECE"
                    />
                    <path
                      d="M22.0795 10.3576L22.7782 14.3725C22.8523 14.7983 22.5246 15.188 22.0924 15.188H16.9988C16.5666 15.188 16.2389 14.7983 16.313 14.3725L17.0117 10.3576C17.0697 10.0242 17.3591 9.78076 17.6976 9.78076H21.3937C21.7321 9.78076 22.0215 10.0242 22.0795 10.3576Z"
                      fill="white"
                    />
                    <path
                      d="M27.49 1.25293H3.95446C2.36627 1.25293 1.07428 2.54492 1.07428 4.13281V18.4994C1.07428 20.0876 2.36627 21.3796 3.95446 21.3796H12.0943V24.8601C12.0943 25.0697 12.2642 25.2396 12.4738 25.2396C12.6833 25.2396 12.8532 25.0698 12.8532 24.8601V21.3811H14.0373V22.3054C14.0373 23.2346 14.793 23.9906 15.7222 23.9906C16.6514 23.9906 17.4073 23.2346 17.4073 22.3054V21.3811H18.5912V24.8601C18.5912 25.0697 18.761 25.2396 18.9706 25.2396C19.1802 25.2396 19.3501 25.0698 19.3501 24.8601V21.3796H27.49C29.0782 21.3796 30.3702 20.0876 30.3702 18.4994C30.3702 14.1465 30.3702 8.23514 30.3702 4.13281C30.3702 2.54492 29.0782 1.25293 27.49 1.25293ZM16.6484 22.3055C16.6484 22.8164 16.2331 23.2317 15.7222 23.2317C15.2117 23.2317 14.7964 22.8164 14.7964 22.3055V21.3812H16.6484V22.3055H16.6484ZM29.6113 18.4995C29.6113 19.6691 28.6596 20.6207 27.49 20.6207C22.6759 20.6207 8.78504 20.6207 3.95446 20.6207C2.78487 20.6207 1.83319 19.6691 1.83319 18.4995V17.506H29.6112V18.4995H29.6113ZM29.6113 16.7471H1.83324V4.13281C1.83324 2.96322 2.78492 2.01189 3.95451 2.01189H27.49C28.6596 2.01189 29.6113 2.96328 29.6113 4.13281V16.7471H29.6113Z"
                      fill="#585D69"
                    />
                    <path
                      d="M20.9301 25.998H10.5148C9.75702 25.998 9.14038 26.6147 9.14038 27.3725C9.14038 28.1303 9.75702 28.7466 10.5148 28.7466H20.9301C21.6879 28.7466 22.3045 28.1303 22.3045 27.3725C22.3045 26.6147 21.6878 25.998 20.9301 25.998ZM20.9301 27.9877H10.5148C10.1754 27.9877 9.89935 27.7116 9.89935 27.3725C9.89935 27.033 10.1754 26.757 10.5148 26.757H20.9301C21.2695 26.757 21.5456 27.033 21.5456 27.3725C21.5456 27.7116 21.2695 27.9877 20.9301 27.9877Z"
                      fill="#585D69"
                    />
                    <path
                      d="M15.0694 19.443H16.375C16.5846 19.443 16.7545 19.2732 16.7545 19.0635C16.7545 18.8539 16.5846 18.6841 16.375 18.6841H15.0694C14.8598 18.6841 14.6899 18.8539 14.6899 19.0635C14.6899 19.2732 14.8598 19.443 15.0694 19.443Z"
                      fill="#585D69"
                    />
                    <path
                      d="M22.4533 10.2928C22.4533 10.2925 22.4533 10.2925 22.4533 10.2925C22.3635 9.77606 21.9176 9.40129 21.3937 9.40129H18.868L18.4883 7.2151C18.3629 6.48549 17.7335 5.95598 16.9914 5.95598H16.4098V5.53855C16.4098 4.19107 15.3134 3.09473 13.9659 3.09473C12.6185 3.09473 11.5225 4.19107 11.5225 5.53855V5.95598H10.9408C10.199 5.95598 9.56936 6.48549 9.44361 7.21422L8.29922 13.787C8.13674 14.7212 8.85709 15.5673 9.79641 15.5673C10.0355 15.5673 21.6812 15.5676 22.0925 15.5676C22.762 15.5676 23.2662 14.9631 23.1521 14.3076L22.4533 10.2928ZM12.2814 5.53861C12.2814 4.60949 13.0371 3.85375 13.9659 3.85375C14.8951 3.85375 15.6508 4.60943 15.6508 5.53861V5.95604H12.2814V5.53861ZM9.04693 13.9174L10.1913 7.34406C10.2542 6.97943 10.5696 6.71494 10.9408 6.71494H11.5225V8.24887C11.5225 8.45846 11.6923 8.62832 11.9019 8.62832C12.1115 8.62832 12.2814 8.45846 12.2814 8.24887V6.71494H15.6507V8.24887C15.6507 8.45846 15.8206 8.62832 16.0302 8.62832C16.2398 8.62832 16.4096 8.45846 16.4096 8.24887V6.71494H16.9913C17.3628 6.71494 17.6776 6.97938 17.7405 7.34436L18.0976 9.40129H17.6975C17.1734 9.40129 16.7275 9.77606 16.6376 10.2928L15.9391 14.3073C15.9096 14.4773 15.9247 14.6479 15.9744 14.8083H9.79641C9.32391 14.8083 8.96602 14.3829 9.04693 13.9174ZM22.0925 14.8086C21.642 14.8086 23.5948 14.8087 16.9966 14.8083C16.7996 14.8069 16.6536 14.63 16.687 14.4374L17.3855 10.4229C17.4118 10.2705 17.5432 10.1603 17.6977 10.1603H21.3938C21.5479 10.1603 21.6793 10.2705 21.7056 10.4229V10.4226L22.4044 14.4377C22.4382 14.6328 22.2874 14.8086 22.0925 14.8086Z"
                      fill="#585D69"
                    />
                    <path
                      d="M20.6694 10.8604C20.4598 10.8604 20.29 11.0302 20.29 11.2398V11.9054C20.29 12.316 19.9562 12.6498 19.5455 12.6498C19.1352 12.6498 18.8014 12.316 18.8014 11.9054V11.2399C18.8014 11.0303 18.6315 10.8604 18.4219 10.8604C18.2122 10.8604 18.0424 11.0303 18.0424 11.2399V11.9054C18.0424 12.7344 18.7166 13.4088 19.5455 13.4088C20.3745 13.4088 21.0489 12.7344 21.0489 11.9054V11.2399C21.0489 11.0302 20.879 10.8604 20.6694 10.8604Z"
                      fill="#585D69"
                    />
                  </g>
                  <defs>
                    <clipPath id="clip0_40_1534">
                      <rect
                        width='30'
                        height='30'
                        fill="white"
                        transform="translate(0.722229)"
                      />
                    </clipPath>
                  </defs>
                </svg>