  <svg
                  width='31'
                  height='30'
                  viewBox="0 0 31 30"
                  fill="none"
                  xmlns="http://www.w3.org/2000/svg"
                >
                  <path
                    d="M23.5898 2.96893V25.1063C23.5898 26.5628 22.4092 27.7434 20.9528 27.7434H4.47275V2.96893C4.47275 2.57646 4.79091 2.2583 5.18337 2.2583H22.8792C23.2717 2.2583 23.5898 2.57646 23.5898 2.96893Z"
                    fill="white"
                  />
                  <path
                    d="M26.4167 13.793H29.431V25.6003H26.4167V13.793Z"
                    fill="#E9DECE"
                  />
                  <path
                    d="M26.4166 25.6001L26.4165 27.0317C26.4165 27.4246 26.735 27.7432 27.1279 27.7432L28.7193 27.7432C29.1122 27.7432 29.4308 27.4247 29.4308 27.0318L29.4309 25.6002L26.4166 25.6001Z"
                    fill="#E9DECE"
                  />
                  <path
                    d="M26.4173 13.7943L27.9255 11.9663L29.4314 13.7943L26.4173 13.7943Z"
                    fill="white"
                  />
                  <path
                    d="M21.0018 27.7432H4.09169C3.36589 27.7432 2.70665 27.4483 2.22952 26.9712C1.75245 26.4941 1.45749 25.8348 1.45749 25.1062V23.3532C1.45749 22.9607 1.77565 22.6426 2.16811 22.6426H17.657C18.0494 22.6426 18.3676 22.9607 18.3676 23.3532V25.1062C18.3676 25.8348 18.6625 26.4941 19.1396 26.9712C19.6168 27.4483 20.2732 27.7432 21.0018 27.7432Z"
                    fill="#E9DECE"
                  />
                  <path
                    d="M22.8784 1.80566H5.18271C4.5434 1.80566 4.02303 2.32779 4.02303 2.96975V20.8368C4.02303 21.0862 4.22482 21.288 4.4742 21.288C4.72357 21.288 4.92537 21.0862 4.92537 20.8368V2.96975C4.92537 2.8252 5.0408 2.70801 5.18271 2.70801H22.8784C23.0229 2.70801 23.1401 2.8252 23.1401 2.96975V25.1051C23.1401 26.2903 22.1774 27.2703 20.9943 27.2892C20.9917 27.2893 20.9895 27.2907 20.9869 27.2908C19.8019 27.2828 18.8189 26.3243 18.8189 25.1064V23.3532C18.8189 22.713 18.2977 22.1917 17.657 22.1917H2.16801C1.52781 22.1917 1.00656 22.713 1.00656 23.3532V25.1064C1.00656 26.7994 2.37473 28.1947 4.09176 28.1947H21.0018C21.0087 28.1947 21.0145 28.1911 21.0214 28.1908C22.6884 28.1569 24.0425 26.776 24.0425 25.1051V2.96975C24.0425 2.32779 23.5203 1.80566 22.8784 1.80566ZM4.09176 27.2923C2.89375 27.2923 1.90896 26.3225 1.90896 25.1064V23.3532C1.90896 23.2104 2.02527 23.0941 2.16807 23.0941H17.6571C17.8003 23.0941 17.9166 23.2104 17.9166 23.3532V25.1064C17.9166 25.9317 18.2378 26.7076 18.8208 27.2905C18.8212 27.2914 18.8221 27.2919 18.8225 27.2923H4.09176Z"
                    fill="#585D69"
                  />
                  <path
                    d="M8.4455 6.66992H19.9835C20.2329 6.66992 20.4347 6.46813 20.4347 6.21875C20.4347 5.96938 20.2329 5.76758 19.9835 5.76758H8.4455C8.19612 5.76758 7.99432 5.96938 7.99432 6.21875C7.99427 6.46813 8.19606 6.66992 8.4455 6.66992Z"
                    fill="#585D69"
                  />
                  <path
                    d="M8.4455 9.94727H19.9835C20.2329 9.94727 20.4347 9.74547 20.4347 9.49609C20.4347 9.24672 20.2329 9.04492 19.9835 9.04492H8.4455C8.19612 9.04492 7.99432 9.24672 7.99432 9.49609C7.99427 9.74547 8.19606 9.94727 8.4455 9.94727Z"
                    fill="#585D69"
                  />
                  <path
                    d="M8.4455 13.2246H19.9835C20.2329 13.2246 20.4347 13.0228 20.4347 12.7734C20.4347 12.5241 20.2329 12.3223 19.9835 12.3223H8.4455C8.19612 12.3223 7.99432 12.5241 7.99432 12.7734C7.99427 13.0228 8.19606 13.2246 8.4455 13.2246Z"
                    fill="#585D69"
                  />
                  <path
                    d="M8.4455 16.502H12.3784C12.6278 16.502 12.8296 16.3002 12.8296 16.0508C12.8296 15.8014 12.6278 15.5996 12.3784 15.5996H8.4455C8.19612 15.5996 7.99432 15.8014 7.99432 16.0508C7.99427 16.3002 8.19606 16.502 8.4455 16.502Z"
                    fill="#585D69"
                  />
                  <path
                    d="M18.7352 17.4452C18.6255 17.8374 18.5127 18.2432 18.269 18.5155C17.8169 19.0213 17.5163 18.6883 17.3054 18.4217C16.5807 17.5127 15.7608 17.636 15.1984 18.3503C15.0131 18.5851 14.819 18.972 14.6696 19.1504C14.4278 19.4373 14.0316 19.5942 13.6593 19.5404C13.287 19.4902 12.945 19.2368 12.7887 18.8957C12.6847 18.6693 12.4159 18.5705 12.1903 18.6737C11.9638 18.7777 11.8642 19.0456 11.9682 19.272C12.255 19.8968 12.8565 20.3423 13.5381 20.4348C14.215 20.5262 14.9149 20.2598 15.3601 19.7312C15.616 19.4263 15.7188 19.1472 15.9069 18.909C16.2317 18.4973 16.3758 18.7031 16.5987 18.9835C17.3628 19.9446 18.3357 19.7959 18.9423 19.1165C19.3256 18.6878 19.4798 18.1331 19.6041 17.6876C19.6711 17.4475 19.531 17.1985 19.2908 17.1319C19.0507 17.0636 18.8022 17.2051 18.7352 17.4452Z"
                    fill="#585D69"
                  />
                  <path
                    d="M29.7797 13.5073L28.3768 11.8048V11.3408C28.3768 11.0914 28.175 10.8896 27.9256 10.8896C27.6763 10.8896 27.4745 11.0914 27.4745 11.3408V11.8042L26.0693 13.5069C26.0035 13.5868 25.9658 13.7098 25.9658 13.7933C25.9657 15.7597 25.9655 23.1701 25.9653 27.0321C25.9653 27.6732 26.4871 28.1949 27.1281 28.1949H28.7192C29.3603 28.1949 29.882 27.6732 29.882 27.0321C29.8821 23.7788 29.8823 17.5941 29.8824 13.7933C29.8824 13.6997 29.8459 13.5877 29.7797 13.5073ZM27.9252 12.6759L28.4744 13.3421H27.3756L27.9252 12.6759ZM26.8681 14.2454H28.98L28.9796 25.1493H26.8677L26.8681 14.2454ZM28.9796 27.0321C28.9796 27.1757 28.8628 27.2924 28.7192 27.2924H27.1281C26.9845 27.2924 26.8677 27.1757 26.8677 27.0321V26.0517H28.9796V27.0321H28.9796Z"
                    fill="#585D69"
                  />
                </svg>