<svg
                  width='31'
                  height='30'
                  viewBox="0 0 31 30"
                  fill="none"
                  xmlns="http://www.w3.org/2000/svg"
                >
                  <path
                    d="M27.8623 11.5086V25.4524C27.8623 27.5757 26.141 29.297 24.0177 29.297H14.0216C11.8983 29.297 10.177 27.5757 10.177 25.4524V11.5086C10.177 10.9521 10.6281 10.501 11.1845 10.501H26.8548C27.4112 10.501 27.8623 10.9521 27.8623 11.5086Z"
                    fill="white"
                  />
                  <path
                    d="M27.8623 15.2797V11.5086C27.8623 10.9521 27.4112 10.501 26.8547 10.501H11.1844C10.628 10.501 10.1768 10.9521 10.1768 11.5086V15.2797H27.8623Z"
                    fill="#E9DECE"
                  />
                  <path
                    d="M7.55244 16.5188C6.91799 17.1533 6.52483 18.0335 6.52483 19.003C6.52483 20.9421 8.09754 22.5148 10.0366 22.5148H10.1773V25.4524H9.92045C6.35725 25.4524 3.47098 22.5639 3.47098 19.003C3.47098 17.2203 4.19256 15.6073 5.35869 14.4412C6.52705 13.2729 8.13774 12.5513 9.92045 12.5513H10.1773V15.4889H10.0366C9.06709 15.489 8.18912 15.8821 7.55244 16.5188Z"
                    fill="#E9DECE"
                  />
                  <path
                    d="M24.5573 17.5019V21.0085C24.5573 21.38 24.2561 21.6812 23.8845 21.6812H21.1934C20.8219 21.6812 20.5206 21.38 20.5206 21.0085V17.5019C20.5206 17.1303 20.8219 16.8291 21.1934 16.8291H23.8845C24.2561 16.829 24.5573 17.1303 24.5573 17.5019Z"
                    fill="#E9DECE"
                  />
                  <path
                    d="M14.7831 8.93308C14.5655 9.28095 14.0786 9.32156 13.7994 9.02085C12.9713 8.129 12.668 6.76435 13.1175 5.61627C13.2598 5.25269 13.4549 4.94455 13.6436 4.64654C13.775 4.43918 13.8991 4.24324 13.9924 4.04695C14.3323 3.33252 14.2856 2.42906 13.9083 1.72582C13.7555 1.44117 13.8008 1.09183 14.0417 0.876676L14.0424 0.876031C14.3658 0.587223 14.8782 0.668902 15.0871 1.04882C15.6836 2.13328 15.7537 3.50836 15.2197 4.63101C15.091 4.90136 14.939 5.1416 14.7919 5.37375C14.6304 5.62869 14.478 5.86951 14.3833 6.11162C14.1302 6.75796 14.3044 7.54962 14.767 8.06671C14.9574 8.27953 15.0007 8.58509 14.8493 8.82714L14.7831 8.93308Z"
                    fill="white"
                  />
                  <path
                    d="M19.5575 8.93308C19.3399 9.28095 18.853 9.32156 18.5738 9.02085C17.7457 8.129 17.4424 6.76435 17.8919 5.61627C18.0342 5.25269 18.2293 4.94455 18.4179 4.64654C18.5494 4.43918 18.6735 4.24324 18.7668 4.04695C19.1067 3.33252 19.06 2.42906 18.6827 1.72582C18.5299 1.44117 18.5751 1.09183 18.8161 0.876676L18.8168 0.876031C19.1402 0.587223 19.6526 0.668902 19.8615 1.04882C20.4579 2.13328 20.5281 3.50836 19.9941 4.63101C19.8654 4.90136 19.7134 5.1416 19.5663 5.37375C19.4048 5.62869 19.2524 5.86951 19.1577 6.11162C18.9046 6.75796 19.0788 7.54962 19.5414 8.06671C19.7318 8.27953 19.7751 8.58509 19.6237 8.82714L19.5575 8.93308Z"
                    fill="white"
                  />
                  <path
                    d="M24.3318 8.93308C24.1142 9.28095 23.6274 9.32156 23.3482 9.02085C22.52 8.129 22.2168 6.76435 22.6662 5.61627C22.8085 5.25269 23.0036 4.94455 23.1923 4.64654C23.3237 4.43918 23.4478 4.24324 23.5412 4.04695C23.8811 3.33252 23.8344 2.42906 23.457 1.72582C23.3043 1.44117 23.3495 1.09183 23.5904 0.876676L23.5911 0.876031C23.9145 0.587223 24.4269 0.668902 24.6359 1.04882C25.2323 2.13328 25.3024 3.50836 24.7685 4.63101C24.6397 4.90136 24.4877 5.1416 24.3406 5.37375C24.1791 5.62869 24.0267 5.86951 23.932 6.11162C23.679 6.75796 23.8532 7.54962 24.3158 8.06671C24.5061 8.27953 24.5494 8.58509 24.398 8.82714L24.3318 8.93308Z"
                    fill="white"
                  />
                  <path
                    d="M28.1975 25.4527C28.1975 22.1638 28.1975 14.7868 28.1975 11.5087C28.1975 10.7684 27.5951 10.166 26.8547 10.166C22.5861 10.166 14.1554 10.166 11.1844 10.166C10.4442 10.166 9.84187 10.7684 9.84187 11.5087V25.4527C9.84187 27.7574 11.717 29.6324 14.0216 29.6324H24.0177C26.3224 29.6324 28.1975 27.7574 28.1975 25.4527ZM27.5273 11.5087V14.9448H22.8731V10.8362H26.8547C27.2256 10.8362 27.5273 11.1379 27.5273 11.5087ZM10.5121 11.5087C10.5121 11.1379 10.8138 10.8362 11.1844 10.8362H22.2029V14.9448H10.5121V11.5087ZM24.0178 28.9622H14.0217C12.0866 28.9622 10.5121 27.3878 10.5121 25.4527V15.6151H22.2029V15.8007C22.2029 15.9858 22.353 16.1358 22.538 16.1358C22.723 16.1358 22.8731 15.9858 22.8731 15.8007V15.6151H27.5273V25.4527C27.5273 27.3878 25.9529 28.9622 24.0178 28.9622Z"
                    fill="#585D69"
                  />
                  <path
                    d="M8.94984 16.0165C9.12416 15.9543 9.21492 15.7625 9.15252 15.5882C9.09012 15.4138 8.89793 15.3228 8.72426 15.3856C7.20826 15.9279 6.18967 17.3817 6.18967 19.0029C6.18967 20.6145 7.20738 22.0679 8.72226 22.6196C9.13857 22.7703 9.36978 22.1421 8.95178 21.9898C7.70039 21.5341 6.85986 20.3338 6.85986 19.0029C6.85986 17.664 7.6998 16.4639 8.94984 16.0165Z"
                    fill="#585D69"
                  />
                  <path
                    d="M9.16734 12.587C9.13658 12.4045 8.96426 12.2812 8.78121 12.3125C5.5101 12.8657 3.13588 15.6796 3.13588 19.003C3.13588 22.3268 5.5101 25.1396 8.78145 25.6912C8.96274 25.7218 9.13652 25.6001 9.16758 25.4166C9.19834 25.234 9.07529 25.0612 8.89272 25.0304C5.94539 24.5334 3.80607 21.9984 3.80607 19.003C3.80607 16.0076 5.94533 13.4719 8.89295 12.9732C9.07553 12.9424 9.19834 12.7696 9.16734 12.587Z"
                    fill="#585D69"
                  />
                  <path
                    d="M23.8845 16.4941H21.1934C20.6378 16.4941 20.1855 16.9462 20.1855 17.5021V21.0087C20.1855 21.5644 20.6377 22.0166 21.1934 22.0166H23.8845C24.4401 22.0166 24.8924 21.5645 24.8924 21.0087V17.5021C24.8924 16.9463 24.4401 16.4941 23.8845 16.4941ZM24.2222 21.0087C24.2222 21.1949 24.0708 21.3464 23.8845 21.3464H21.1934C21.0071 21.3464 20.8557 21.1949 20.8557 21.0087V17.5021C20.8557 17.3159 21.0071 17.1643 21.1934 17.1643H23.8845C24.0708 17.1643 24.2222 17.3159 24.2222 17.5021V21.0087Z"
                    fill="#585D69"
                  />
                  <path
                    d="M13.8185 0.626476C13.4681 0.939425 13.3835 1.45646 13.613 1.88407C13.947 2.50651 13.9771 3.29894 13.6898 3.90292C13.4718 4.36107 13.066 4.82847 12.8057 5.49386C12.3198 6.73452 12.6204 8.24343 13.5537 9.2486C13.9859 9.71396 14.7347 9.64224 15.0671 9.11038L15.1334 9.00456C15.3605 8.64175 15.3136 8.17499 15.0169 7.84306C14.6271 7.40741 14.4949 6.74548 14.6956 6.23337C14.8581 5.81659 15.2402 5.36771 15.5224 4.77462C16.0936 3.57374 16.0392 2.08417 15.3809 0.886984C15.0695 0.321202 14.306 0.191241 13.8185 0.626476ZM14.9172 4.48669C14.6641 5.01896 14.2635 5.49737 14.0714 5.98915C13.7777 6.73898 13.9571 7.66364 14.5173 8.28978C14.6133 8.39724 14.6325 8.54167 14.5653 8.64907L14.499 8.75501V8.75525C14.3979 8.91638 14.1738 8.93173 14.045 8.79269C13.2827 7.97196 13.0355 6.74448 13.4296 5.73814C13.6592 5.15185 14.0555 4.6947 14.295 4.19085C14.6766 3.38876 14.6415 2.38353 14.2034 1.56714C14.1198 1.41116 14.1445 1.23409 14.2655 1.12581C14.4284 0.980675 14.688 1.01829 14.7935 1.21013C15.3498 2.22163 15.3971 3.4773 14.9172 4.48669Z"
                    fill="#585D69"
                  />
                  <path
                    d="M19.8415 9.11044L19.9078 9.00462C20.1349 8.6418 20.088 8.17505 19.7913 7.84311C19.4015 7.40735 19.2693 6.74553 19.47 6.23307C19.6312 5.81993 20.0161 5.36348 20.2966 4.77479C20.8678 3.57391 20.8136 2.08434 20.1552 0.887038C19.8439 0.321199 19.0804 0.191238 18.593 0.626472C18.2426 0.939421 18.158 1.45645 18.3875 1.88407C18.7215 2.50651 18.7516 3.29893 18.4643 3.90292C18.2447 4.3644 17.8401 4.82846 17.5799 5.49385C17.094 6.73452 17.3949 8.24354 18.3282 9.2486C18.7603 9.71401 19.5091 9.64229 19.8415 9.11044ZM18.2038 5.73813C18.4335 5.1512 18.829 4.69663 19.0695 4.19085C19.451 3.38876 19.4159 2.38352 18.9778 1.56714C18.8943 1.41116 18.9189 1.23409 19.04 1.12581C19.2039 0.979675 19.4634 1.01999 19.5679 1.21012C20.1242 2.22186 20.1715 3.47735 19.6914 4.4868C19.4379 5.01971 19.0367 5.49989 18.8458 5.98915C18.552 6.73886 18.7312 7.66352 19.2917 8.28989C19.3877 8.39735 19.4069 8.54178 19.3397 8.64919L19.2734 8.75512V8.75536C19.173 8.91549 18.9489 8.93272 18.8194 8.7928C18.0572 7.97196 17.81 6.74448 18.2038 5.73813Z"
                    fill="#585D69"
                  />
                  <path
                    d="M22.3543 5.49389C21.8684 6.73456 22.1693 8.24358 23.1026 9.24864C23.5329 9.71194 24.2818 9.64467 24.6159 9.11053C24.6159 9.11041 24.6162 9.1103 24.6162 9.11018L24.682 9.00459C24.9091 8.64155 24.8622 8.17473 24.5655 7.84309C24.1757 7.40733 24.0435 6.7454 24.2442 6.2334C24.4068 5.81645 24.7884 5.3685 25.071 4.77477C25.6422 3.57413 25.5878 2.08444 24.9295 0.887251C24.62 0.323638 23.8614 0.192505 23.374 0.620532C23.3718 0.622524 23.3694 0.624575 23.3672 0.626509C23.0169 0.939458 22.9324 1.45649 23.1618 1.88387C23.4957 2.50637 23.5259 3.29885 23.2383 3.90307C23.0208 4.36163 22.6157 4.82581 22.3543 5.49389ZM23.8437 4.19082C24.2252 3.38885 24.1901 2.38356 23.7523 1.56711C23.6696 1.41278 23.6927 1.2377 23.8099 1.12983C23.8114 1.12854 23.8129 1.12719 23.8144 1.12579C23.9774 0.980474 24.237 1.01885 24.3422 1.2101C24.8987 2.22196 24.9461 3.47745 24.4659 4.48678C24.2122 5.02022 23.8114 5.49963 23.6201 5.98924C23.3264 6.73883 23.5058 7.66338 24.066 8.2901C24.162 8.39733 24.1812 8.54165 24.1137 8.64963L24.0476 8.75534C23.9472 8.91565 23.7236 8.93264 23.5939 8.79278C22.8316 7.97206 22.5844 6.74457 22.9782 5.73823C23.2091 5.1486 23.6045 4.69456 23.8437 4.19082Z"
                    fill="#585D69"
                  />
                </svg>