 <svg
                  width='26'
                  height='26'
                  viewBox="0 0 26 26"
                  fill="none"
                  xmlns="http://www.w3.org/2000/svg"
                >
                  <g clipPath="url(#clip0_40_1626)">
                    <path
                      d="M24.4774 10.5118V21.5795C24.4774 22.9028 23.4047 23.9756 22.0813 23.9756H3.14081C1.81747 23.9756 0.74472 22.9028 0.74472 21.5795V10.5118C0.74472 9.18848 1.81747 8.11572 3.14081 8.11572H22.0813C23.4046 8.11572 24.4774 9.18848 24.4774 10.5118Z"
                      fill="#E9DECE"
                    />
                    <path
                      d="M24.4774 15.4942V10.5118C24.4774 9.18848 23.4047 8.11572 22.0813 8.11572H3.14081C1.81747 8.11572 0.74472 9.18848 0.74472 10.5118V15.4941C8.62177 17.6331 16.5329 17.6148 24.4774 15.4942Z"
                      fill="white"
                    />
                    <path
                      d="M14.1704 15.5132V18.67C14.1704 18.9483 13.9448 19.1739 13.6665 19.1739H11.5557C11.2773 19.1739 11.0517 18.9483 11.0517 18.67V15.5132C11.0517 15.2349 11.2773 15.0093 11.5557 15.0093H13.6665C13.9448 15.0093 14.1704 15.2349 14.1704 15.5132Z"
                      fill="white"
                    />
                    <path
                      d="M9.37192 6.83223V8.11587H6.10107V6.83223C6.10107 6.61694 6.27563 6.44238 6.49092 6.44238H8.98208C9.19741 6.44238 9.37192 6.61689 9.37192 6.83223Z"
                      fill="#E9DECE"
                    />
                    <path
                      d="M19.1211 6.83223V8.11587H15.8502V6.83223C15.8502 6.61694 16.0248 6.44238 16.2401 6.44238H18.7312C18.9465 6.44238 19.1211 6.61689 19.1211 6.83223Z"
                      fill="#E9DECE"
                    />
                    <path
                      d="M18.1196 6.41035H16.8518V4.32485C16.8518 3.75503 16.3885 3.2917 15.8186 3.2917H9.40365C8.83383 3.2917 8.3705 3.75503 8.3705 4.32485V6.41035H7.10272V4.32485C7.10272 3.05615 8.13495 2.02393 9.40365 2.02393H15.8186C17.0873 2.02393 18.1196 3.05615 18.1196 4.32485V6.41035Z"
                      fill="white"
                    />
                    <path
                      d="M22.0814 7.81924H19.4178V6.83218C19.4178 6.45371 19.1098 6.1457 18.7313 6.1457H18.4163V4.32515C18.4163 2.89282 17.251 1.72754 15.8187 1.72754H9.40371C7.97138 1.72754 6.8061 2.89287 6.8061 4.32515V6.14565H6.49091C6.11244 6.14565 5.80444 6.45366 5.80444 6.83213V7.81919H3.14072C1.65605 7.81919 0.44809 9.02715 0.44809 10.5118V21.5795C0.44809 23.0642 1.65605 24.2721 3.14072 24.2721H22.0814C23.5661 24.2721 24.7741 23.0642 24.7741 21.5795C24.7741 20.1573 24.7741 11.6506 24.7741 10.5118C24.7741 9.0272 23.5661 7.81924 22.0814 7.81924ZM18.7313 6.73897C18.7828 6.73897 18.8245 6.78066 18.8245 6.83213V7.81919H16.1469V6.83213C16.1469 6.78066 16.1886 6.73897 16.24 6.73897H18.7313ZM8.98212 6.14565H8.66713V4.32515C8.66713 3.91909 8.99765 3.58862 9.40366 3.58862H15.8186C16.2247 3.58862 16.5552 3.91914 16.5552 4.32515V6.14565H16.24C15.8615 6.14565 15.5535 6.45366 15.5535 6.83213V7.81919H9.6686V6.83213C9.6686 6.45366 9.36059 6.14565 8.98212 6.14565ZM7.39941 4.32515C7.39941 3.21987 8.29843 2.32085 9.40371 2.32085H15.8187C16.924 2.32085 17.823 3.21987 17.823 4.32515V6.11392H17.1486V4.32515C17.1486 3.59185 16.552 2.99526 15.8187 2.99526H9.40371C8.6704 2.99526 8.07382 3.59185 8.07382 4.32515V6.11392H7.39941V4.32515ZM6.3977 6.83213C6.3977 6.78066 6.4394 6.73897 6.49086 6.73897H8.98212C9.03359 6.73897 9.07529 6.78066 9.07529 6.83213V7.81919H6.3977V6.83213ZM24.1808 21.5795C24.1808 22.7372 23.2391 23.6789 22.0814 23.6789H3.14072C1.98305 23.6789 1.0414 22.7372 1.0414 21.5795V15.8763C4.25532 16.7207 7.49794 17.2081 10.7551 17.3396V18.67C10.7551 19.1115 11.1141 19.4705 11.5557 19.4705H13.6665C14.1081 19.4705 14.4671 19.1115 14.4671 18.67V17.3356C17.7019 17.1981 20.9448 16.7117 24.1808 15.8749V21.5795H24.1808ZM11.3484 18.67V15.5131C11.3484 15.3988 11.4414 15.3059 11.5556 15.3059H13.6665C13.7808 15.3059 13.8737 15.3988 13.8737 15.5131V18.67C13.8737 18.7842 13.7808 18.8771 13.6665 18.8771H11.5556C11.4414 18.8771 11.3484 18.7842 11.3484 18.67ZM24.1808 15.2658C20.9446 16.1136 17.7017 16.6027 14.467 16.7418V15.5131C14.467 15.0716 14.108 14.7126 13.6665 14.7126H11.5556C11.1141 14.7126 10.7551 15.0716 10.7551 15.5131V16.7465C7.4976 16.6131 4.25444 16.1224 1.04135 15.2668V10.5119C1.04135 9.35425 1.983 8.4126 3.14067 8.4126H22.0814C23.2391 8.4126 24.1807 9.35425 24.1807 10.5119L24.1808 15.2658Z"
                      fill="#585D69"
                    />
                  </g>
                  <defs>
                    <clipPath id="clip0_40_1626">
                      <rect
                        width='25'
                        height='25'
                        fill="white"
                        transform="translate(0.111084 0.5)"
                      />
                    </clipPath>
                  </defs>
                </svg>