   <svg
                  width='31'
                  height='30'
                  viewBox="0 0 31 30"
                  fill="none"
                  xmlns="http://www.w3.org/2000/svg"
                >
                  <g clipPath="url(#clip0_40_1594)">
                    <path
                      d="M20.7267 6.5085V13.2972C20.7267 15.9979 18.5385 18.1906 15.8332 18.1906C14.4827 18.1906 13.256 17.6459 12.3725 16.7578C11.489 15.8698 10.9397 14.6521 10.9397 13.2971V6.50844C10.9397 3.80305 13.1278 1.61035 15.8332 1.61035C17.1836 1.61035 18.4104 2.15967 19.2939 3.04314C20.1774 3.93131 20.7267 5.15352 20.7267 6.5085Z"
                      fill="#E9DECE"
                    />
                    <path
                      d="M7.87506 15.7962C7.87506 20.03 11.2007 23.4921 15.3754 23.7313V27.9309H9.82951C9.57651 27.9309 9.37172 28.1359 9.37172 28.3887C9.37172 28.6416 9.57645 28.8465 9.82951 28.8465H21.8369C22.0899 28.8465 22.2947 28.6416 22.2947 28.3887C22.2947 28.1359 22.09 27.9309 21.8369 27.9309H16.291V23.7313C20.4657 23.4921 23.7913 20.03 23.7913 15.7962C23.7913 15.5434 23.5866 15.3384 23.3336 15.3384C23.0805 15.3384 22.8758 15.5433 22.8758 15.7962C22.8758 19.6796 19.7166 22.839 15.8332 22.839C11.9498 22.839 8.79065 19.6795 8.79065 15.7962C8.79065 15.5434 8.58592 15.3384 8.33285 15.3384C8.07979 15.3384 7.87506 15.5433 7.87506 15.7962Z"
                      fill="#585D69"
                    />
                    <path
                      d="M29.558 10.0737C29.647 11.9602 28.997 13.768 27.7274 15.1637C27.5576 15.3507 27.5714 15.6402 27.7583 15.8103C27.9451 15.9805 28.235 15.9666 28.4051 15.7797C29.8387 14.203 30.5733 12.1614 30.4727 10.0303C30.3712 7.9002 29.4463 5.93748 27.8691 4.50364C27.6827 4.33401 27.3926 4.34742 27.2222 4.53428C27.0524 4.72137 27.0662 5.01106 27.2531 5.18092C28.6496 6.45047 29.4682 8.18813 29.558 10.0737Z"
                      fill="#585D69"
                    />
                    <path
                      d="M26.6975 9.90047C26.8343 11.0214 26.5254 12.1287 25.828 13.0183C25.672 13.2172 25.7068 13.5049 25.9058 13.6609C26.1069 13.8181 26.3942 13.7802 26.5487 13.5829C27.3967 12.5009 27.7726 11.1537 27.6068 9.79026C27.4526 8.51754 26.833 7.35504 25.862 6.5171C25.6711 6.35169 25.381 6.37313 25.2165 6.5645C25.0511 6.75581 25.0725 7.04485 25.2639 7.21003C26.0618 7.89891 26.571 8.85446 26.6975 9.90047Z"
                      fill="#585D69"
                    />
                    <path
                      d="M24.3617 10.3213C24.3854 10.8191 24.2138 11.2959 23.8789 11.664C23.709 11.8511 23.7229 12.1405 23.9097 12.3106C24.0959 12.4802 24.385 12.4677 24.5566 12.28C25.0559 11.7308 25.3112 11.0198 25.2759 10.278C25.241 9.53587 24.9187 8.85238 24.3697 8.35304C24.1833 8.18382 23.8932 8.19683 23.7229 8.38409C23.553 8.57118 23.5668 8.86064 23.7537 9.03073C24.1221 9.36531 24.338 9.82374 24.3617 10.3213Z"
                      fill="#585D69"
                    />
                    <path
                      d="M3.90808 15.8103C4.09494 15.6402 4.10883 15.3507 3.9389 15.1636C2.66912 13.7675 2.01914 11.96 2.10849 10.0737C2.19814 8.18789 3.01664 6.45029 4.41316 5.18115C4.60002 5.01105 4.6139 4.7216 4.44398 4.53451C4.27365 4.34718 3.98396 4.33423 3.79711 4.50345C2.21976 5.9373 1.29504 7.90025 1.19379 10.0304C1.09301 12.161 1.82701 14.2028 3.26109 15.7797C3.4326 15.9671 3.72164 15.98 3.90808 15.8103Z"
                      fill="#585D69"
                    />
                    <path
                      d="M5.11776 13.583C5.27222 13.7802 5.55956 13.8181 5.7606 13.6609C5.95952 13.5049 5.99439 13.2173 5.83841 13.0183C5.14103 12.1287 4.83212 11.0214 4.96888 9.90028C5.09538 8.85444 5.60456 7.89889 6.40249 7.21001C6.5938 7.04483 6.6153 6.75585 6.44989 6.56448C6.28495 6.37317 5.9948 6.35167 5.80437 6.51708C4.83347 7.35508 4.21384 8.51758 4.05962 9.79006C3.8938 11.1538 4.26974 12.5009 5.11776 13.583Z"
                      fill="#585D69"
                    />
                    <path
                      d="M7.10971 12.28C7.2811 12.4675 7.57014 12.4804 7.75659 12.3107C7.94344 12.1406 7.95733 11.8511 7.78741 11.664C7.4526 11.2959 7.28092 10.8191 7.3046 10.3213C7.32827 9.82376 7.54419 9.36538 7.91257 9.03076C8.09942 8.86066 8.11331 8.5712 7.94339 8.38411C7.77305 8.19679 7.48337 8.18384 7.29651 8.35306C6.74755 8.8524 6.42522 9.53589 6.39036 10.278C6.35514 11.0198 6.61038 11.7308 7.10971 12.28Z"
                      fill="#585D69"
                    />
                    <path
                      d="M10.4817 13.2972C10.4817 16.2029 12.8214 18.6485 15.8331 18.6485C18.784 18.6485 21.1846 16.2479 21.1846 13.2972V6.50854C21.1846 3.57832 18.822 1.15283 15.8331 1.15283C12.8822 1.15283 10.4817 3.55541 10.4817 6.50854C10.4817 6.69674 10.4817 13.3614 10.4817 13.2972ZM15.8331 2.06842C18.3097 2.06842 20.269 4.07713 20.269 6.50859V13.2973C20.269 15.7432 18.2793 17.733 15.8331 17.733C13.3698 17.733 11.4551 15.7643 11.4021 13.3979H13.6011C13.8541 13.3979 14.0589 13.1929 14.0589 12.9401C14.0589 12.6872 13.8541 12.4823 13.6011 12.4823H11.3972V10.3596H13.6011C13.8541 10.3596 14.0589 10.1546 14.0589 9.90176C14.0589 9.64893 13.8541 9.44396 13.6011 9.44396H11.3972V7.32123H13.6011C13.8541 7.32123 14.0589 7.11627 14.0589 6.86344C14.0589 6.61061 13.8541 6.40564 13.6011 6.40564H11.4024C11.4578 4.00512 13.4217 2.06842 15.8331 2.06842Z"
                      fill="#585D69"
                    />
                  </g>
                  <defs>
                    <clipPath id="clip0_40_1594">
                      <rect
                        width='30'
                        height='30'
                        fill="white"
                        transform="translate(0.833252)"
                      />
                    </clipPath>
                  </defs>
                </svg>