<svg
                  width='31'
                  height='30'
                  viewBox="0 0 31 30"
                  fill="none"
                  xmlns="http://www.w3.org/2000/svg"
                >
                  <path
                    d="M2.41769 9.69328V13.2844C2.41769 14.2586 3.20748 15.0485 4.18178 15.0485H21.2552C22.2295 15.0485 23.0193 14.2587 23.0193 13.2844V9.69328C23.0193 8.71904 22.2295 7.9292 21.2552 7.9292H4.18172C3.20748 7.92926 2.41769 8.71904 2.41769 9.69328Z"
                    fill="#E9DECE"
                  />
                  <path
                    d="M23.0193 16.8124V20.4035C23.0193 21.3778 22.2295 22.1676 21.2552 22.1676H4.18172C3.20748 22.1676 2.41763 21.3778 2.41763 20.4035V16.8124C2.41763 15.8382 3.20742 15.0483 4.18172 15.0483H21.2552C22.2295 15.0483 23.0193 15.8382 23.0193 16.8124Z"
                    fill="white"
                  />
                  <path
                    d="M23.0193 2.57365V6.16475C23.0193 7.13898 22.2295 7.92883 21.2552 7.92883H4.18172C3.20748 7.92883 2.41763 7.13904 2.41763 6.16475V2.57365C2.41763 1.59941 3.20742 0.80957 4.18172 0.80957H21.2552C22.2295 0.80957 23.0193 1.59936 23.0193 2.57365Z"
                    fill="white"
                  />
                  <path
                    d="M27.6929 19.0879V24.4758C27.6929 24.748 27.5886 25.0097 27.4015 25.2073L23.9436 28.8587C23.524 29.3018 22.8185 29.3018 22.3989 28.8587L18.941 25.2073C18.7539 25.0097 18.6496 24.748 18.6496 24.4758V19.0879C18.6496 18.6478 18.9578 18.2677 19.3884 18.1768L22.9788 17.4185C23.1057 17.3917 23.2368 17.3917 23.3637 17.4185L26.9541 18.1768C27.3848 18.2677 27.6929 18.6478 27.6929 19.0879Z"
                    fill="#E9DECE"
                  />
                  <path
                    d="M6.18716 19.0655H6.29849C6.5515 19.0655 6.75628 18.8605 6.75628 18.6077C6.75628 18.3549 6.55156 18.1499 6.29849 18.1499H6.18716C5.93416 18.1499 5.72937 18.3549 5.72937 18.6077C5.72937 18.8605 5.93416 19.0655 6.18716 19.0655Z"
                    fill="#585D69"
                  />
                  <path
                    d="M9.0473 19.0655H9.15904C9.41205 19.0655 9.61683 18.8605 9.61683 18.6077C9.61683 18.3549 9.41211 18.1499 9.15904 18.1499H9.0473C8.79429 18.1499 8.58951 18.3549 8.58951 18.6077C8.58951 18.8605 8.79429 19.0655 9.0473 19.0655Z"
                    fill="#585D69"
                  />
                  <path
                    d="M19.1386 11.9463H19.25C19.503 11.9463 19.7078 11.7414 19.7078 11.4886C19.7078 11.2357 19.503 11.0308 19.25 11.0308H19.1386C18.8856 11.0308 18.6808 11.2357 18.6808 11.4886C18.6808 11.7414 18.8856 11.9463 19.1386 11.9463Z"
                    fill="#585D69"
                  />
                  <path
                    d="M16.278 11.9463H16.3894C16.6424 11.9463 16.8472 11.7414 16.8472 11.4886C16.8472 11.2357 16.6424 11.0308 16.3894 11.0308H16.278C16.025 11.0308 15.8203 11.2357 15.8203 11.4886C15.8203 11.7414 16.025 11.9463 16.278 11.9463Z"
                    fill="#585D69"
                  />
                  <path
                    d="M13.4175 11.9463H13.5292C13.7823 11.9463 13.987 11.7414 13.987 11.4886C13.987 11.2357 13.7823 11.0308 13.5292 11.0308H13.4175C13.1645 11.0308 12.9597 11.2357 12.9597 11.4886C12.9597 11.7414 13.1645 11.9463 13.4175 11.9463Z"
                    fill="#585D69"
                  />
                  <path
                    d="M11.9078 19.0655H12.0192C12.2722 19.0655 12.477 18.8605 12.477 18.6077C12.477 18.3549 12.2722 18.1499 12.0192 18.1499H11.9078C11.6548 18.1499 11.45 18.3549 11.45 18.6077C11.45 18.8605 11.6548 19.0655 11.9078 19.0655Z"
                    fill="#585D69"
                  />
                  <path
                    d="M23.4771 6.16508V2.57381C23.4771 1.34873 22.4802 0.352051 21.2554 0.352051H4.18178C2.95688 0.352051 1.96002 1.34873 1.96002 2.57381V6.16508C1.96002 6.88689 2.31141 7.52299 2.84625 7.9291C2.31141 8.33516 1.96002 8.97131 1.96002 9.69312V13.2842C1.96002 14.006 2.31147 14.6422 2.84631 15.0483C2.31141 15.4544 1.96002 16.0905 1.96002 16.8124V20.4034C1.96002 21.6285 2.95694 22.6254 4.18178 22.6254H18.1918V24.4762C18.1918 24.8664 18.3398 25.2379 18.6085 25.5222L22.0668 29.1738C22.6661 29.8064 23.6759 29.807 24.2764 29.1736L27.7342 25.522C28.0029 25.2379 28.1509 24.8664 28.1509 24.4762V19.0883C28.1509 18.4356 27.6873 17.8641 27.049 17.7291L23.4772 16.9751V16.8124C23.4772 16.0906 23.1257 15.4545 22.5909 15.0484C23.1258 14.6422 23.4772 14.006 23.4772 13.2842V9.69318C23.4772 8.97137 23.1258 8.33527 22.5909 7.92916C23.1257 7.52299 23.4771 6.88684 23.4771 6.16508ZM27.2353 19.0882V24.476C27.2353 24.6314 27.1763 24.7794 27.069 24.8927L23.6116 28.5438C23.3801 28.7884 22.9621 28.7881 22.7314 28.5441L19.2737 24.8929C19.1664 24.7794 19.1074 24.6314 19.1074 24.4761V19.0882C19.1074 18.8658 19.2656 18.6709 19.4833 18.6249L23.0739 17.8665C23.1366 17.8532 23.2054 17.8528 23.2687 17.8667L26.8593 18.6249C27.0771 18.6709 27.2353 18.8657 27.2353 19.0882ZM22.5616 16.8123V17.039L19.2938 17.729C18.6554 17.864 18.1918 18.4355 18.1918 19.0882V21.7098H4.18178C3.4616 21.7098 2.87555 21.1238 2.87555 20.4034V16.8123C2.87555 16.0921 3.4616 15.5061 4.18178 15.5061H21.2554C21.9755 15.5061 22.5616 16.0921 22.5616 16.8123ZM22.5616 9.69307V13.2841C22.5616 14.0045 21.9755 14.5906 21.2554 14.5906H4.18178C3.4616 14.5906 2.87555 14.0045 2.87555 13.2841V9.69307C2.87555 8.97289 3.4616 8.38684 4.18178 8.38684H21.2554C21.9755 8.38684 22.5616 8.97289 22.5616 9.69307ZM4.18178 7.47131C3.4616 7.47131 2.87555 6.88525 2.87555 6.16508V2.57381C2.87555 1.85363 3.4616 1.26758 4.18178 1.26758H21.2554C21.9755 1.26758 22.5616 1.85363 22.5616 2.57381V6.16508C22.5616 6.88525 21.9755 7.47131 21.2554 7.47131H4.18178Z"
                    fill="#585D69"
                  />
                  <path
                    d="M12.0192 3.91162H11.9078C11.6548 3.91162 11.45 4.11658 11.45 4.36941C11.45 4.62225 11.6548 4.82721 11.9078 4.82721H12.0192C12.2722 4.82721 12.477 4.62225 12.477 4.36941C12.477 4.11658 12.2722 3.91162 12.0192 3.91162Z"
                    fill="#585D69"
                  />
                  <path
                    d="M9.15904 3.91162H9.0473C8.79429 3.91162 8.58951 4.11658 8.58951 4.36941C8.58951 4.62225 8.79423 4.82721 9.0473 4.82721H9.15904C9.41205 4.82721 9.61683 4.62225 9.61683 4.36941C9.61683 4.11658 9.41211 3.91162 9.15904 3.91162Z"
                    fill="#585D69"
                  />
                  <path
                    d="M6.29849 3.91162H6.18716C5.93416 3.91162 5.72937 4.11658 5.72937 4.36941C5.72937 4.62225 5.9341 4.82721 6.18716 4.82721H6.29849C6.5515 4.82721 6.75628 4.62225 6.75628 4.36941C6.75628 4.11658 6.5515 3.91162 6.29849 3.91162Z"
                    fill="#585D69"
                  />
                  <path
                    d="M21.7587 22.4418C21.6059 22.2416 21.3175 22.2029 21.1172 22.3567C20.9165 22.5103 20.8781 22.7975 21.0319 22.9984L22.3341 24.7003C22.415 24.806 22.5379 24.8713 22.6711 24.8791C22.8118 24.8861 22.938 24.8321 23.0265 24.7401L26.9068 20.7235C27.0824 20.5415 27.0775 20.2518 26.8956 20.0762C26.7145 19.9005 26.4235 19.9058 26.2487 20.0874L22.7377 23.7215L21.7587 22.4418Z"
                    fill="#585D69"
                  />
                </svg>