 <svg
                  width='31'
                  height='30'
                  viewBox="0 0 31 30"
                  fill="none"
                  xmlns="http://www.w3.org/2000/svg"
                >
                  <path
                    d="M28.8428 7.74801V19.3789H1.71228V7.74801C1.71228 6.6601 2.594 5.77832 3.68197 5.77832H26.8731C27.9611 5.77832 28.8428 6.66004 28.8428 7.74801Z"
                    fill="white"
                  />
                  <path
                    d="M1.71228 19.3794V22.5901C1.71228 23.6787 2.5947 24.561 3.6832 24.561H26.8719C27.9603 24.561 28.8428 23.6786 28.8428 22.5901V19.3794H1.71228Z"
                    fill="#E9DECE"
                  />
                  <path
                    d="M18.3398 24.561L19.5343 29.2847H11.0209L12.2154 24.561H18.3398Z"
                    fill="#E9DECE"
                  />
                  <path
                    d="M25.2459 2.2091V10.6468C25.2459 11.4717 24.5782 12.141 23.7516 12.141H16.4918L12.8917 16.0201V12.141H11.2366C10.4117 12.141 9.74237 11.4717 9.74237 10.6468V2.2091C9.74237 1.38422 10.4117 0.714844 11.2366 0.714844H23.7516C24.5782 0.714844 25.2459 1.38422 25.2459 2.2091Z"
                    fill="#E9DECE"
                  />
                  <path
                    d="M29.1999 7.74799C29.1999 6.46502 28.1562 5.42111 26.8732 5.42111H25.603V2.20924C25.603 1.18836 24.7725 0.35791 23.7516 0.35791H11.2367C10.2158 0.35791 9.38532 1.18836 9.38532 2.20924V5.42111H3.68198C2.39901 5.42111 1.35522 6.46502 1.35522 7.74799V22.5902C1.35522 23.8739 2.39954 24.9183 3.68321 24.9183H11.7567L10.7428 28.9277H8.72632C8.52909 28.9277 8.36919 29.0875 8.36919 29.2848C8.36919 29.4821 8.52903 29.642 8.72632 29.642H21.8288C22.026 29.642 22.1859 29.4821 22.1859 29.2848C22.1859 29.0875 22.0261 28.9277 21.8288 28.9277H19.8124L18.7985 24.9183H26.8719C28.1556 24.9183 29.1999 23.8739 29.1999 22.5902C29.1999 16.1367 29.1999 9.90711 29.1999 7.74799ZM10.0996 2.20924C10.0996 1.58234 10.6098 1.07217 11.2367 1.07217H23.7516C24.3786 1.07217 24.8888 1.58234 24.8888 2.20924V10.647C24.8888 11.2739 24.3786 11.784 23.7516 11.784H16.4918C16.3925 11.784 16.2976 11.8255 16.2301 11.8983L13.2489 15.1105V12.1412C13.2489 11.9439 13.089 11.784 12.8917 11.784H11.2367C10.6098 11.784 10.0996 11.2739 10.0996 10.647V2.20924H10.0996ZM2.06948 7.74799C2.06948 6.85883 2.79282 6.13537 3.68198 6.13537H9.38532V10.647C9.38532 11.6679 10.2158 12.4983 11.2367 12.4983H12.5346V16.0203C12.5346 16.1671 12.6246 16.299 12.7613 16.3527C12.8992 16.4066 13.0543 16.37 13.1534 16.2631L16.6476 12.4983H23.7516C24.7725 12.4983 25.603 11.6679 25.603 10.647V6.13537H26.8732C27.7623 6.13537 28.4857 6.85883 28.4857 7.74799V19.0216H2.06948V7.74799ZM19.0756 28.9278H11.4795L12.4934 24.9184H18.0618L19.0756 28.9278ZM28.4857 22.5902C28.4857 23.4801 27.7618 24.2041 26.8719 24.2041C21.6955 24.2041 8.88593 24.2041 3.68321 24.2041C2.79335 24.2041 2.06948 23.4801 2.06948 22.5902V19.7367H28.4857V22.5902Z"
                    fill="#585D69"
                  />
                  <path
                    d="M14.1875 22.3275H16.3676C16.5648 22.3275 16.7247 22.1677 16.7247 21.9704C16.7247 21.7731 16.5649 21.6133 16.3676 21.6133H14.1875C13.9903 21.6133 13.8304 21.7731 13.8304 21.9704C13.8304 22.1677 13.9903 22.3275 14.1875 22.3275Z"
                    fill="#585D69"
                  />
                  <path
                    d="M15.0768 8.58965C15.2164 8.72916 15.4423 8.72916 15.5819 8.58965C15.7214 8.45014 15.7214 8.22415 15.5819 8.08463L13.6586 6.16135L15.5819 4.23807C15.7214 4.09856 15.7214 3.87256 15.5819 3.73305C15.4423 3.59354 15.2164 3.59354 15.0768 3.73305L12.901 5.90887C12.7615 6.04838 12.7615 6.27438 12.901 6.41389L15.0768 8.58965Z"
                    fill="#585D69"
                  />
                  <path
                    d="M19.4072 8.58922C19.5467 8.72873 19.7727 8.72873 19.9122 8.58922L22.088 6.4134C22.2275 6.27389 22.2275 6.0479 22.088 5.90838L19.9122 3.73256C19.7727 3.59305 19.5467 3.59305 19.4072 3.73256C19.2677 3.87208 19.2677 4.09807 19.4072 4.23758L21.3305 6.16086L19.4072 8.08415C19.2677 8.22377 19.2677 8.44977 19.4072 8.58922Z"
                    fill="#585D69"
                  />
                  <path
                    d="M16.5847 9.20461C16.7733 9.26104 16.9725 9.15399 17.0291 8.96467L18.6444 3.56262C18.7009 3.37371 18.5935 3.17467 18.4044 3.11819C18.2153 3.06141 18.0165 3.1691 17.96 3.35813L16.3448 8.76018C16.2883 8.94903 16.3957 9.14813 16.5847 9.20461Z"
                    fill="#585D69"
                  />
                </svg>