   <svg
                  width='30'
                  height='30'
                  viewBox="0 0 30 30"
                  fill="none"
                  xmlns="http://www.w3.org/2000/svg"
                >
                  <g clipPath="url(#clip0_40_1682)">
                    <path
                      d="M26.6149 6.09445H21.9306V4.69564C21.9306 3.53508 20.9898 2.59424 19.8292 2.59424H10.1703C9.00969 2.59424 8.06885 3.53508 8.06885 4.69564V6.09445H3.38457C1.96215 6.09445 0.809082 7.24752 0.809082 8.66994V24.8302C0.809082 26.2526 1.96215 27.4057 3.38457 27.4057H26.6149C28.0373 27.4057 29.1904 26.2526 29.1904 24.8302V8.67C29.1904 7.24758 28.0373 6.09445 26.6149 6.09445Z"
                      fill="white"
                    />
                    <path
                      d="M20.8082 22.2927C24.018 19.083 24.018 13.8789 20.8082 10.6692C17.5985 7.45941 12.3944 7.45941 9.18465 10.6692C5.97489 13.8789 5.97489 19.083 9.18465 22.2927C12.3944 25.5025 17.5985 25.5025 20.8082 22.2927Z"
                      fill="#E9DECE"
                    />
                    <path
                      d="M20.3668 17.758C21.0675 14.7936 19.2325 11.8225 16.2681 11.1218C13.3038 10.4211 10.3326 12.2561 9.63192 15.2205C8.9312 18.1848 10.7662 21.1559 13.7306 21.8567C16.6949 22.5574 19.6661 20.7223 20.3668 17.758Z"
                      fill="white"
                    />
                    <path
                      d="M6.36413 5.03947V6.09451H3.58661V5.03947C3.58661 4.53439 3.99606 4.125 4.50108 4.125H5.4496C5.95468 4.12494 6.36413 4.53439 6.36413 5.03947Z"
                      fill="#E9DECE"
                    />
                    <path
                      d="M26.6149 5.6365H22.3884V4.69549C22.3884 3.2842 21.2404 2.13623 19.8293 2.13623H10.1702C8.75917 2.13623 7.6112 3.2842 7.6112 4.69549V5.6365H6.82194V5.03932C6.82194 4.2827 6.20636 3.66717 5.44979 3.66717H4.50116C3.74454 3.66717 3.12901 4.28275 3.12901 5.03932V5.64951C1.57587 5.78 0.351318 7.08359 0.351318 8.6699V24.83C0.351318 26.5026 1.7121 27.8633 3.38466 27.8633H26.6148C28.2874 27.8633 29.6481 26.5026 29.6481 24.83V8.6699C29.6482 6.99728 28.2874 5.6365 26.6149 5.6365ZM4.04448 5.03932C4.04448 4.78742 4.24921 4.5827 4.5011 4.5827H5.44974C5.70163 4.5827 5.90636 4.78742 5.90636 5.03932V5.6365H4.04448V5.03932ZM28.7327 24.8299C28.7327 25.9978 27.7827 26.9478 26.6149 26.9478H3.38466C2.21677 26.9478 1.26685 25.9978 1.26685 24.8299V8.6699C1.26685 7.50201 2.21677 6.55209 3.38466 6.55209C3.50519 6.55209 6.4862 6.55209 6.36415 6.55209H8.06894C8.32171 6.55209 8.52673 6.34713 8.52673 6.0943V4.69555C8.52673 3.78916 9.26413 3.05182 10.1702 3.05182H19.8293C20.7354 3.05182 21.4728 3.78922 21.4728 4.69555V6.0943C21.4728 6.34707 21.6777 6.55209 21.9306 6.55209H26.6149C27.7827 6.55209 28.7327 7.50201 28.7327 8.6699V24.8299Z"
                      fill="#585D69"
                    />
                    <path
                      d="M14.9997 7.80322C10.2147 7.80322 6.32166 11.6963 6.32166 16.4813C6.32166 21.2666 10.2147 25.1596 14.9997 25.1596C19.7848 25.1596 23.6778 21.2665 23.6778 16.4813C23.6778 11.6963 19.7848 7.80322 14.9997 7.80322ZM14.9997 24.244C10.7194 24.244 7.23718 20.7616 7.23718 16.4813C7.23718 12.201 10.7194 8.71875 14.9997 8.71875C19.2801 8.71875 22.7623 12.2009 22.7623 16.4813C22.7623 20.7617 19.2801 24.244 14.9997 24.244Z"
                      fill="#585D69"
                    />
                    <path
                      d="M14.9997 10.5068C11.7055 10.5068 9.02557 13.1868 9.02557 16.481C9.02557 19.7752 11.7055 22.4552 14.9997 22.4552C18.2939 22.4552 20.9739 19.7752 20.9739 16.481C20.9739 13.1868 18.2939 10.5068 14.9997 10.5068ZM14.9997 21.5396C12.2104 21.5396 9.9411 19.2702 9.9411 16.481C9.9411 13.6918 12.2105 11.4224 14.9997 11.4224C17.789 11.4224 20.0584 13.6918 20.0584 16.481C20.0584 19.2702 17.789 21.5396 14.9997 21.5396Z"
                      fill="#585D69"
                    />
                    <path
                      d="M14.9998 13.0601C14.747 13.0601 14.542 13.265 14.542 13.5179C14.542 13.7707 14.747 13.9756 14.9998 13.9756C16.3814 13.9756 17.5054 15.0995 17.5054 16.4811C17.5054 16.7338 17.7104 16.9388 17.9632 16.9388C18.2161 16.9388 18.421 16.7339 18.421 16.4811C18.421 14.5947 16.8863 13.0601 14.9998 13.0601Z"
                      fill="#585D69"
                    />
                    <path
                      d="M26.8001 8.93604H24.8473C24.5945 8.93604 24.3895 9.141 24.3895 9.39383C24.3895 9.64666 24.5944 9.85162 24.8473 9.85162H26.8001C27.0529 9.85162 27.2579 9.64666 27.2579 9.39383C27.2579 9.141 27.053 8.93604 26.8001 8.93604Z"
                      fill="#585D69"
                    />
                  </g>
                  <defs>
                    <clipPath id="clip0_40_1682">
                      <rect
                        width='30'
                        height='30'
                        fill="white"
                        transform="translate(-0.000244141)"
                      />
                    </clipPath>
                  </defs>
                </svg>